<svg width="28" height="26" viewBox="0 0 28 26" fill="none" xmlns="http://www.w3.org/2000/svg">
<g clip-path="url(#clip0_5198_27253)">
<path d="M3.45152 0C1.55409 0 0.015625 1.58512 0.015625 3.5401H21.6724C23.1018 3.5401 24.2602 4.73368 24.2602 6.20635H11.4108C7.5817 6.20635 4.47585 9.40232 4.47059 13.3475V14.3284C4.46402 18.2397 7.54094 21.4126 11.3358 21.4126H27.6264V6.7862C27.6264 3.03747 24.677 0 21.04 0H3.45152ZM24.2602 17.8725H11.3779C9.46599 17.8725 7.91569 16.2752 7.91569 14.3054V13.4627C7.91569 11.4101 9.53042 9.74509 11.5238 9.74509H24.2615V17.8725H24.2602Z" fill="#4F39F6"/>
<path d="M3.36752 18.1045V4.34375H0L0.0105194 18.4052C0.0131492 22.6011 3.31492 26.0003 7.38725 26.0003H24.1907C26.0881 26.0003 27.6266 24.4151 27.6266 22.4602H7.595C5.2597 22.4602 3.36621 20.5092 3.36621 18.1031L3.36752 18.1045Z" fill="#4F39F6"/>
</g>
<defs>
<clipPath id="clip0_5198_27253">
<rect width="27.6266" height="26.0003" fill="white"/>
</clipPath>
</defs>
</svg>
